<mxfile host="app.diagrams.net" modified="2024-04-15T18:37:21.549Z" agent="Mozilla/5.0 (Windows NT 10.0; Win64; x64) AppleWebKit/537.36 (KHTML, like Gecko) Chrome/123.0.0.0 Safari/537.36 Edg/123.0.0.0" etag="IyGhWphOS1gOVfXndX5i" version="24.2.5" type="device">
  <diagram name="Page-1" id="lBTtXCqejluXPcuxgnst">
    <mxGraphModel dx="1005" dy="1203" grid="0" gridSize="10" guides="1" tooltips="1" connect="1" arrows="1" fold="1" page="0" pageScale="1" pageWidth="850" pageHeight="1100" math="0" shadow="0">
      <root>
        <mxCell id="0" />
        <mxCell id="1" parent="0" />
        <mxCell id="4MLwhqXekIt73L7Nqnkv-1" value="" style="ellipse;whiteSpace=wrap;html=1;" vertex="1" parent="1">
          <mxGeometry x="129" y="165" width="140" height="70" as="geometry" />
        </mxCell>
        <mxCell id="4MLwhqXekIt73L7Nqnkv-2" value="User" style="shape=umlActor;verticalLabelPosition=bottom;verticalAlign=top;html=1;" vertex="1" parent="1">
          <mxGeometry x="91" y="-91" width="30" height="60" as="geometry" />
        </mxCell>
        <mxCell id="4MLwhqXekIt73L7Nqnkv-3" value="Buyer&lt;div&gt;&lt;br&gt;&lt;/div&gt;" style="shape=umlActor;verticalLabelPosition=bottom;verticalAlign=top;html=1;" vertex="1" parent="1">
          <mxGeometry x="223" y="-31" width="30" height="60" as="geometry" />
        </mxCell>
        <mxCell id="4MLwhqXekIt73L7Nqnkv-4" value="Seller" style="shape=umlActor;verticalLabelPosition=bottom;verticalAlign=top;html=1;" vertex="1" parent="1">
          <mxGeometry x="-30" y="-31" width="30" height="60" as="geometry" />
        </mxCell>
        <mxCell id="4MLwhqXekIt73L7Nqnkv-6" value="" style="endArrow=none;html=1;rounded=0;fontSize=12;startSize=8;endSize=8;curved=1;entryX=0.25;entryY=0.1;entryDx=0;entryDy=0;entryPerimeter=0;" edge="1" parent="1" target="4MLwhqXekIt73L7Nqnkv-2">
          <mxGeometry width="50" height="50" relative="1" as="geometry">
            <mxPoint x="-7" y="-28" as="sourcePoint" />
            <mxPoint x="43" y="-78" as="targetPoint" />
          </mxGeometry>
        </mxCell>
        <mxCell id="4MLwhqXekIt73L7Nqnkv-7" value="" style="endArrow=none;html=1;rounded=0;fontSize=12;startSize=8;endSize=8;curved=1;entryX=0.25;entryY=0.1;entryDx=0;entryDy=0;entryPerimeter=0;exitX=0.75;exitY=0.1;exitDx=0;exitDy=0;exitPerimeter=0;" edge="1" parent="1" source="4MLwhqXekIt73L7Nqnkv-2">
          <mxGeometry width="50" height="50" relative="1" as="geometry">
            <mxPoint x="125" y="33" as="sourcePoint" />
            <mxPoint x="231" y="-24" as="targetPoint" />
          </mxGeometry>
        </mxCell>
      </root>
    </mxGraphModel>
  </diagram>
</mxfile>
